<svg width="30" height="28" viewBox="0 0 30 28" fill="none" xmlns="http://www.w3.org/2000/svg">
<g clip-path="url(#clip0_63_819)">
<path d="M0 9.81551C0 16.1034 5.3125 22.2878 13.7054 27.6015C14.0179 27.7933 14.4643 28 14.7768 28C15.0893 28 15.5357 27.7933 15.8631 27.6015C24.241 22.2878 29.5535 16.1034 29.5535 9.81551C29.5535 4.59042 25.9375 0.900391 21.1161 0.900391C18.363 0.900391 16.1309 2.19928 14.7768 4.19189C13.4524 2.21404 11.1905 0.900391 8.4375 0.900391C3.61608 0.900391 0 4.59042 0 9.81551ZM2.39583 9.81551C2.39583 5.88931 4.95535 3.27677 8.40773 3.27677C11.2054 3.27677 12.8124 5.00371 13.7648 6.47972C14.1666 7.07012 14.4197 7.23249 14.7768 7.23249C15.134 7.23249 15.3572 7.05536 15.7887 6.47972C16.8155 5.03322 18.363 3.27677 21.1458 3.27677C24.5982 3.27677 27.1577 5.88931 27.1577 9.81551C27.1577 15.3062 21.3095 21.2251 15.0893 25.3284C14.9404 25.4317 14.8363 25.5055 14.7768 25.5055C14.7172 25.5055 14.6131 25.4317 14.4791 25.3284C8.24405 21.2251 2.39583 15.3062 2.39583 9.81551Z" fill="white"/>
</g>
<defs>
<clipPath id="clip0_63_819">
<rect width="30" height="28" fill="white"/>
</clipPath>
</defs>
</svg>
