<svg width="28" height="28" viewBox="0 0 28 28" fill="none" xmlns="http://www.w3.org/2000/svg">
<g clip-path="url(#clip0_63_831)">
<path d="M0 11.3249C0 17.5692 5.05242 22.6497 11.2621 22.6497C13.7177 22.6497 15.9617 21.8551 17.8105 20.521L24.754 27.5175C25.0786 27.8439 25.502 28 25.9537 28C26.9134 28 27.5766 27.2762 27.5766 26.3254C27.5766 25.8713 27.4072 25.4597 27.1109 25.1616L20.2096 18.1794C21.6633 16.2777 22.5242 13.9078 22.5242 11.3249C22.5242 5.08058 17.4718 0 11.2621 0C5.05242 0 0 5.08058 0 11.3249ZM2.41331 11.3249C2.41331 6.4146 6.37904 2.42677 11.2621 2.42677C16.1451 2.42677 20.1109 6.4146 20.1109 11.3249C20.1109 16.2351 16.1451 20.223 11.2621 20.223C6.37904 20.223 2.41331 16.2351 2.41331 11.3249Z" fill="#A0A0A0"/>
</g>
<defs>
<clipPath id="clip0_63_831">
<rect width="28" height="28" fill="white"/>
</clipPath>
</defs>
</svg>
