<svg width="20" height="28" viewBox="0 0 20 28" fill="none" xmlns="http://www.w3.org/2000/svg">
<g clip-path="url(#clip0_63_827)">
<path d="M0 13.992C0 14.3949 0.142631 14.7496 0.443739 15.0558L13.0111 27.5485C13.2805 27.8388 13.6291 27.9839 14.0412 27.9839C14.8653 27.9839 15.4991 27.3551 15.4991 26.5169C15.4991 26.0979 15.3248 25.7431 15.0712 25.4691L3.53406 13.992L15.0712 2.51467C15.3248 2.24065 15.4991 1.86989 15.4991 1.4669C15.4991 0.628669 14.8653 0 14.0412 0C13.6291 0 13.2805 0.145078 13.0111 0.419113L0.443739 12.928C0.142631 13.2182 0 13.5889 0 13.992Z" fill="white"/>
</g>
<defs>
<clipPath id="clip0_63_827">
<rect width="20" height="28" fill="white"/>
</clipPath>
</defs>
</svg>
